<svg xmlns="http://www.w3.org/2000/svg" width="1200" height="760" viewBox="0 0 1200 760"><defs><linearGradient id="s" x1="0" x2="1"><stop stop-color="#dce8f1"/><stop offset="1" stop-color="#fff"/></linearGradient><linearGradient id="r" x1="0" x2="1"><stop stop-color="#162c47"/><stop offset="1" stop-color="#0d1724"/></linearGradient><filter id="sh"><feDropShadow dy="20" stdDeviation="18" flood-opacity=".22"/></filter></defs><rect width="1200" height="760" fill="url(#s)"/><circle cx="980" cy="130" r="63" fill="#fff" opacity=".85"/><path d="M0 570 220 420l145 80 210-170 240 180 165-105 220 150v205H0Z" fill="#69818f" opacity=".3"/><g filter="url(#sh)"><rect x="230" y="380" width="735" height="280" rx="12" fill="#f5efe7"/><path d="M145 405 585 135l475 270H145Z" fill="url(#r)"/><path d="M270 397 585 205l340 192" fill="none" stroke="#e17a32" stroke-width="18" stroke-linecap="round"/><rect x="320" y="470" width="128" height="190" fill="#d5c7b7"/><rect x="745" y="455" width="150" height="94" fill="#a9c8dc"/><path d="M0 655h1200v105H0z" fill="#537047"/></g><text x="70" y="90" font-family="Arial" font-size="28" font-weight="800" fill="#0d2036" opacity=".75">Hero image</text></svg>
