<svg xmlns="http://www.w3.org/2000/svg" width="1200" height="760" viewBox="0 0 1200 760"><defs><linearGradient id="bg" x1="0" y1="0" x2="1" y2="1"><stop stop-color="#0e1117"/><stop offset="1" stop-color="#1c2535"/></linearGradient><linearGradient id="gl" x1="0" x2="1"><stop stop-color="#4b7dff"/><stop offset="1" stop-color="#ffd33d"/></linearGradient><filter id="sh"><feDropShadow dy="22" stdDeviation="25" flood-color="#000" flood-opacity=".5"/></filter></defs><rect width="1200" height="760" fill="url(#bg)"/><path d="M0 130h1200M0 260h1200M0 390h1200M0 520h1200M0 650h1200M150 0v760M300 0v760M450 0v760M600 0v760M750 0v760M900 0v760M1050 0v760" stroke="#fff" stroke-opacity=".035"/><g filter="url(#sh)"><rect x="170" y="160" width="860" height="480" rx="28" fill="#171d29" stroke="#33415c" stroke-width="3"/><rect x="240" y="230" width="290" height="335" rx="18" fill="#0b0e13"/><g fill="none" stroke="#ffd33d" stroke-width="11"><path d="M292 305h180M292 365h180M292 425h180M292 485h180"/></g><g fill="#4b7dff"><circle cx="330" cy="305" r="13"/><circle cx="430" cy="365" r="13"/><circle cx="370" cy="425" r="13"/><circle cx="460" cy="485" r="13"/></g><path d="M690 210h180l-95 142h112L640 592l75-180H600L690 210Z" fill="url(#gl)"/></g><text x="70" y="90" font-family="Arial" font-size="28" font-weight="900" fill="#fff" opacity=".76">Smart-space consultation</text></svg>
