<svg width="240" height="240" viewBox="0 0 240 240" fill="none" xmlns="http://www.w3.org/2000/svg"><rect width="240" height="240" rx="54" fill="url(#bg)"/><circle cx="120" cy="120" r="70" stroke="#7DD3FC" stroke-opacity=".42" stroke-width="6"/><path d="M50 120h140M120 50c22 18 35 43 35 70s-13 52-35 70M120 50c-22 18-35 43-35 70s13 52 35 70" stroke="#7DD3FC" stroke-opacity=".5" stroke-width="5" stroke-linecap="round"/><path d="M120 34l18.5 66.5L205 120l-66.5 19.5L120 206l-18.5-66.5L35 120l66.5-19.5L120 34z" fill="white"/><path d="M120 68l10.7 40.3L171 120l-40.3 11.7L120 172l-10.7-40.3L69 120l40.3-11.7L120 68z" fill="#38BDF8"/><defs><linearGradient id="bg" x1="0" y1="0" x2="240" y2="240" gradientUnits="userSpaceOnUse"><stop stop-color="#0B2A5B"/><stop offset=".55" stop-color="#0F5B9D"/><stop offset="1" stop-color="#07111E"/></linearGradient></defs></svg>