<svg xmlns="http://www.w3.org/2000/svg" width="1200" height="760" viewBox="0 0 1200 760"><defs><linearGradient id="s" y1="0" y2="1"><stop stop-color="#e8efe7"/><stop offset="1" stop-color="#fffaf1"/></linearGradient><linearGradient id="p" x1="0" x2="1"><stop stop-color="#d8c9b7"/><stop offset="1" stop-color="#baa68c"/></linearGradient><filter id="sh"><feDropShadow dy="18" stdDeviation="16" flood-opacity=".18"/></filter></defs><rect width="1200" height="760" fill="url(#s)"/><circle cx="1000" cy="130" r="72" fill="#fff3cf"/><path d="M0 430C170 350 315 420 450 360c175-78 300 22 430-48 120-65 220-8 320 10v438H0Z" fill="#52745c" opacity=".37"/><g filter="url(#sh)"><path d="M90 575c210-140 390-175 575-120 145 43 265 16 445-57v362H90Z" fill="url(#p)"/><rect x="655" y="315" width="310" height="210" rx="13" fill="#f5efe4"/><path d="M620 330 808 205l190 125" fill="none" stroke="#18382a" stroke-width="22" stroke-linecap="round"/><rect x="735" y="400" width="150" height="125" fill="#a6c3d0"/><ellipse cx="350" cy="450" rx="120" ry="72" fill="#c6744f" opacity=".9"/><ellipse cx="350" cy="433" rx="96" ry="54" fill="#4f7958"/><path d="M202 500c-20-128 33-224 118-278M1020 490c-5-142 52-228 128-280" stroke="#375f42" stroke-width="22" stroke-linecap="round"/><circle cx="306" cy="241" r="68" fill="#76987c"/><circle cx="1135" cy="220" r="78" fill="#64896b"/></g><text x="70" y="90" font-family="Georgia" font-size="28" font-weight="700" fill="#18382a" opacity=".77">Service area map</text></svg>
